<svg width="375" height="94" viewBox="0 0 375 94" fill="none" xmlns="http://www.w3.org/2000/svg">
<path d="M19 16H3V0H19V16Z" fill="#FF914D"/>
<path d="M74.1365 49.6344C74.1365 64.4959 84.8942 77.0001 102.209 77.0001C115.221 77.0001 123.212 69.1081 123.212 69.1081L117.782 60.0887C117.782 60.0887 111.533 65.9308 103.131 65.9308C95.2422 65.9308 88.4802 61.1137 87.4556 51.8893H123.52C123.52 51.8893 123.827 48.6095 123.827 47.0721C123.827 33.2356 115.631 22.2688 100.672 22.2688C84.9967 22.2688 74.1365 33.543 74.1365 49.6344ZM87.8654 42.8699C89.2998 36.3103 94.0127 32.3131 100.672 32.3131C106 32.3131 110.303 36.6178 110.508 42.8699H87.8654Z" fill="#222E80"/>
<path d="M133.831 76.2826H146.74V55.579C146.74 52.5043 147.15 49.6344 147.867 47.0721C150.224 39.2826 156 35.0001 162 34.568C163.995 34.4243 165.285 34.568 165.285 34.568V23.4987C165.285 23.4987 164.127 23.4987 163 23.4987C155.008 23.4987 148.687 29.2383 146.33 36.7203H146.125C146.125 36.7203 146.33 35.3879 146.33 33.4405V30.3658C146.33 25.9585 143.974 24.0112 139.363 24.0112H127.479V35.0804H131.577C133.011 35.0804 133.831 35.7979 133.831 37.3353V76.2826Z" fill="#222E80"/>
<path d="M6.3522 68.8006C6.3522 73.7203 8.4013 75.7701 13.2167 75.7701H25.6137V64.8034H21.5155C20.0812 64.8034 19.2615 63.9834 19.2615 62.5485V30.4682C19.2615 25.651 17.2124 23.4987 12.397 23.4987H0V34.5679H4.0982C5.53257 34.5679 6.3522 35.2854 6.3522 36.8228V68.8006Z" fill="#222E80"/>
<path d="M28.0552 67.6732C28.0552 67.6732 35.4319 77.0001 49.7756 77.0001C61.1481 77.0001 69.8568 70.8505 69.8568 61.0112C69.8568 43.5874 42.0915 45.2272 42.0915 37.0278C42.0915 33.953 45.2676 32.3131 49.8781 32.3131C52.7468 32.3131 56.4352 33.543 56.4352 36.0029V38.5652H67.9101V33.1331C67.9101 24.6261 56.6401 22.2688 49.5707 22.2688C38.7105 22.2688 29.2846 27.086 29.2846 37.5403C29.2846 54.4516 56.845 54.3491 56.845 61.7286C56.845 65.2134 53.7714 66.8533 49.7756 66.8533C40.862 66.8533 34.2025 59.1663 34.2025 59.1663L28.0552 67.6732Z" fill="#222E80"/>
<path d="M187.954 75.7701H203.425L218.383 36.4128C218.896 35.0804 219.818 34.5679 221.252 34.5679H222.481V23.4987H215.515C211.314 23.4987 209.162 24.8311 207.83 28.4183L197.995 55.8865C196.97 58.9613 196.151 63.3685 196.151 63.3685H195.946C195.946 63.3685 195.126 58.9613 193.999 55.8865L184.163 28.4183C182.831 24.8311 180.782 23.4987 176.479 23.4987H169V34.5679H170.127C171.561 34.5679 172.483 35.0804 172.996 36.4128L187.954 75.7701Z" fill="#222E80"/>
<path d="M225.84 60.848C225.84 70.448 234.192 75.152 242.256 75.152C254.352 75.152 258.384 64.688 258.288 64.688H258.48C258.48 64.688 258.384 66.128 258.384 68.24C258.384 72.176 260.016 74 264.144 74H270.768V68.336H266.736C265.392 68.336 264.624 67.664 264.624 66.224V43.088C264.624 32.72 260.976 24.56 245.712 24.56C241.488 24.56 229.968 26 229.968 32.72V37.328H236.208V34.256C236.208 30.704 243.216 30.032 245.616 30.032C254.448 30.032 258.096 33.584 258.096 43.664V44.24H255.408C247.056 44.24 225.84 44.816 225.84 60.848ZM232.56 60.464C232.56 49.616 247.728 49.424 255.312 49.424H258.096V51.632C258.096 59.984 252.528 69.584 243.312 69.584C236.112 69.584 232.56 64.976 232.56 60.464Z" fill="#222E80"/>
<path d="M277.805 93.2H284.332V70.256C284.332 67.76 284.141 66.032 284.141 66.032H284.332C284.332 66.032 288.364 75.152 300.172 75.152C312.652 75.152 321.772 65.168 321.772 49.904C321.772 34.928 313.709 24.56 300.749 24.56C287.981 24.56 284.141 34.064 284.141 34.064H283.948C283.948 34.064 284.044 32.72 284.044 30.8C284.044 27.44 282.412 25.712 278.284 25.712H271.66V31.376H275.693C277.037 31.376 277.805 32.144 277.805 33.488V93.2ZM284.141 50C284.141 36.272 291.725 30.512 299.789 30.512C308.813 30.512 315.052 38.096 315.052 49.904C315.052 62.192 308.044 69.392 299.5 69.392C289.42 69.392 284.141 59.696 284.141 50Z" fill="#222E80"/>
<path d="M330.788 93.2H337.316V70.256C337.316 67.76 337.124 66.032 337.124 66.032H337.316C337.316 66.032 341.348 75.152 353.156 75.152C365.636 75.152 374.756 65.168 374.756 49.904C374.756 34.928 366.692 24.56 353.732 24.56C340.964 24.56 337.124 34.064 337.124 34.064H336.932C336.932 34.064 337.028 32.72 337.028 30.8C337.028 27.44 335.396 25.712 331.268 25.712H324.644V31.376H328.676C330.02 31.376 330.788 32.144 330.788 33.488V93.2ZM337.124 50C337.124 36.272 344.708 30.512 352.772 30.512C361.796 30.512 368.036 38.096 368.036 49.904C368.036 62.192 361.028 69.392 352.484 69.392C342.404 69.392 337.124 59.696 337.124 50Z" fill="#222E80"/>
</svg>
