<?xml version="1.0" encoding="UTF-8"?>
<!DOCTYPE svg PUBLIC "-//W3C//DTD SVG 1.1//EN" "http://www.w3.org/Graphics/SVG/1.1/DTD/svg11.dtd">
<!-- Creator: CorelDRAW 2021 (64 Bit) -->
<svg xmlns="http://www.w3.org/2000/svg" xml:space="preserve" width="20.3547mm" height="6.2191mm" version="1.1" style="shape-rendering:geometricPrecision; text-rendering:geometricPrecision; image-rendering:optimizeQuality; fill-rule:evenodd; clip-rule:evenodd"
viewBox="0 0 231.49 70.73"
 xmlns:xlink="http://www.w3.org/1999/xlink"
 xmlns:xodm="http://www.corel.com/coreldraw/odm/2003">
 <defs>
  <style type="text/css">
   <![CDATA[
    .fil0 {fill:#005CCE}
    .fil2 {fill:#6C9FC9}
    .fil1 {fill:gray}
   ]]>
  </style>
 </defs>
 <g id="Camada_x0020_1">
  <metadata id="CorelCorpID_0Corel-Layer"/>
  <g id="_2738944464960">
   <path class="fil0" d="M2.55 45.43c2.19,0.76 5.89,0.23 8.35,0.26l-0.51 -18.55 8.67 10.26c2.14,2.57 6.05,7.11 10.84,8.23 12.97,3.05 13.51,-16.01 8.38,-23.86l-6.13 -1.05c1.43,3.24 5.68,10.59 2.41,14.68 -3.15,3.94 -9.33,-1 -11.98,-4.35l-12.8 -15.55c-1.54,-1.11 -6.01,-1.31 -8.25,-1.48l1.02 31.41z"/>
   <path class="fil0" d="M124.03 42.24c-5.55,2.43 -9.85,0.55 -9.92,-5.49 -0.06,-6.13 4.23,-7.42 10.01,-6.01l-0.1 11.5zm0.1 3.03c-0.13,6.56 -6.52,4.82 -11.32,3.95l0.07 2.5c2.93,1.32 12.97,2.39 14.31,-3.85 0.53,-2.47 0.35,-16.44 0.13,-19.51 -7.55,-1.76 -15.63,-1.5 -16.35,6.84 -0.85,9.9 4.69,11.45 13.16,10.06z"/>
   <path class="fil0" d="M201.69 34.98c-0.07,-6.23 9.9,-6.94 9.79,0.02l-9.79 -0.02zm12.1 10.4l0.01 -2.67c-5.17,0.96 -12.81,1.53 -12.08,-4.97l12.88 -0.02c0.26,-5.3 -0.49,-8.84 -5.3,-9.9 -12.29,-2.69 -13.34,11.45 -8.15,16.22 2.93,2.69 8.51,2 12.64,1.35z"/>
   <path class="fil0" d="M167.66 34.98c-0.05,-6.23 9.88,-6.94 9.79,0.01l-9.79 -0.01zm12.11 10.4l0.01 -2.67c-5.2,1.02 -12.81,1.47 -12.08,-4.97l12.88 -0.03c0.23,-5.32 -0.48,-8.84 -5.3,-9.9 -12.26,-2.69 -13.38,11.4 -8.15,16.22 2.91,2.69 8.53,1.99 12.65,1.34z"/>
   <path class="fil0" d="M132.32 35.03c-0.03,-3.2 1.57,-4.76 4.84,-4.85 3.24,-0.09 5.09,1.64 4.87,4.84l-9.71 0.01zm12.09 7.76c-2.71,0.35 -5.47,1.01 -8.31,0.28 -2.38,-0.61 -4.15,-2.54 -3.71,-5.35l12.84 -0.01c0.32,-5.45 -0.7,-9.25 -5.84,-10 -13.11,-1.91 -12.35,13.69 -6.6,17.07 2.43,1.43 8.4,1.47 10.42,0.87 1.74,-0.52 1.19,-0.71 1.2,-2.85z"/>
   <path class="fil0" d="M97.6 39.18c-1.75,7.38 -13.25,5.11 -10.55,-5.15 1.67,-6.35 13,-5.17 10.55,5.15zm-7.26 -11.43c-6.05,1.1 -7.57,5.8 -6.68,11.43 1.56,9.94 19.39,10.13 17.27,-4.66 -0.74,-5.15 -4.89,-7.8 -10.59,-6.76z"/>
   <path class="fil0" d="M57.38 29.67c-1.66,-1.91 1,-1.95 -2.43,-2.11 -1.19,1.72 -0.65,16.81 -0.49,18.45l3.11 -0.08 0.05 -13.23c2.24,-2.13 7.87,-4.22 9.18,-0.1 0.69,2.18 0.05,10.26 0.33,13.39l3.1 -0.01c0.27,-3.49 0.62,-13.38 -0.96,-15.86 -2.4,-3.8 -9.17,-2.77 -11.9,-0.44z"/>
   <path class="fil0" d="M146.8 45.99l3.19 -0.02 0.08 -13.27c3.71,-3.23 8.1,-3.24 9.15,-0.2 0.72,2.07 0.15,10.47 0.36,13.43l3.1 0.09c0.32,-3.63 0.76,-13.29 -1.07,-15.88 -2.92,-4.12 -8.39,-2.59 -11.89,-0.47 -1.25,-1.98 0.31,-2.12 -2.75,-2.09l-0.17 18.41z"/>
   <path class="fil0" d="M193.53 39.02c1.45,6.37 -6.56,4.26 -10.68,3.36l0.05 2.8c3.47,0.74 8.41,1.52 11.62,-0.09 3.36,-1.69 3.57,-6.97 0.31,-8.92 -2.75,-1.65 -10.39,0.61 -9.48,-3.8 0.74,-3.61 8.24,-1.82 11.11,-1.2l-0.05 -2.54c-2.45,-1.34 -12.71,-2.54 -14.04,2.67 -2.21,8.69 7.35,6.01 11.16,7.7z"/>
   <path class="fil0" d="M216.17 42.41l0.05 2.72c15.53,4.17 16.54,-6.35 11.84,-8.98 -3.02,-1.68 -10.92,0.71 -9.34,-4.07 1.14,-3.47 8.66,-1.09 11.02,-1.08l-0.06 -2.48c-3.04,-1.08 -8.46,-1.4 -11.35,-0.12 -3.75,1.66 -3.77,6.89 -0.73,8.92 3.08,2.05 10.28,-0.74 9.5,3.8 -0.65,3.82 -8.03,1.76 -10.93,1.28z"/>
   <path class="fil0" d="M72.78 45.99l3.1 -0.02 0.07 -15.77 5.67 -0.02 0.02 -2.6 -5.72 -0.02c0.2,-5.66 3.08,-5.52 8.35,-4.34l-0.04 -2.27c-1.32,-0.97 -11.26,-3.44 -11.55,6.06 -0.16,5.36 -0.37,13.8 0.09,18.98z"/>
   <path class="fil0" d="M3.2 0.64c-7.14,3.68 -0.99,13.67 5.36,10.8 6.59,-2.99 1.25,-14.2 -5.36,-10.8z"/>
   <polygon class="fil0" points="47.85,45.84 51,46.04 51.1,20.87 47.84,20.99 "/>
   <path class="fil0" d="M102.65 45.99l3.19 -0.03 0.08 -13.26c0.72,-1.72 4.62,-2.33 5.38,-2.84l-0.08 -2.29c-2.98,0.18 -3.57,0.77 -5.65,2.01 -1.18,-2.15 0.08,-2.04 -2.76,-2.01l-0.17 18.41z"/>
   <path class="fil1" d="M72.36 70.42c0.65,-1.53 0.23,-4.21 0.37,-6.13 1.23,1.64 1.86,4.73 3.28,6.1l3.04 -6.24c0.15,1.18 0.13,2.26 0.11,3.38 -0.04,2.15 -0.14,1.99 0.5,2.95l0.37 -0.61c0.26,-0.89 0.58,-6.46 -0.37,-7.74 -1.38,0.58 -0.3,-0.63 -1.33,1.23 -0.65,1.17 -1.17,3.26 -2.32,5.05l-2.38 -4.99c-0.8,-1.7 -0.06,-1.07 -1.67,-1.2 -0.41,1.11 -0.25,2.67 -0.25,4.08 -0,0.74 -0.08,1.79 -0.04,2.47 0.1,2.08 -0.19,1.08 0.69,1.63z"/>
   <path class="fil1" d="M156.6 70.43c0.54,-0.6 0.42,-0.08 0.62,-1.27 0.01,-0.09 0,-1.44 0,-1.63 -0.02,-1.19 -0.05,-2.32 0.02,-3.51 0.93,1.84 2.25,4.34 2.86,6.44 1.43,-0.85 1.34,-1.64 1.99,-3.15 0.49,-1.13 1.26,-2.4 1.58,-3.29l0.04 6.46c1.16,-0.44 1.25,1.33 1.06,-6.22l-0.47 -2.11c-1.61,0.46 -0.32,-1 -2.09,2.89 -0.6,1.31 -1.18,2.41 -1.65,3.57 -0.56,-0.76 -1.22,-2.34 -1.66,-3.38 -0.69,-1.63 -0.68,-2.69 -2.3,-3.06 -0.62,1.2 -0.36,2.78 -0.36,4.13l0.03 3.21c0.23,1.35 0.03,0.34 0.32,0.91z"/>
   <path class="fil1" d="M137.94 63.06c6.87,-0.04 4.21,5.42 4.18,5.46 -1.32,0.81 -1.94,1 -4.19,1l0.01 -6.46zm-1.01 7.18c3.49,0.9 6.57,-0.54 6.68,-3.93 0.13,-3.87 -2.91,-4.82 -6.68,-3.95l-0 7.88z"/>
   <path class="fil1" d="M186.64 63.41c4.58,-2.43 5.4,4.91 2.61,6.02 -3.32,1.33 -4.71,-1.96 -4,-4.44 0.5,-1.77 0.5,-1.11 1.39,-1.58zm4.84 4.93c2.4,-5.24 -4.24,-8.73 -6.85,-4.36 -3.08,5.17 4.48,9.54 6.85,4.36z"/>
   <path class="fil1" d="M226.27 22.29c0.46,-1.13 0.29,-2.35 0.36,-3.83 0.68,1.04 0.43,0.91 0.81,2.08 0.49,1.51 0.08,1.1 1.26,1.79 1.1,-1.39 0.81,-2.35 1.64,-3.81l0.09 3.64c1.45,-0.13 1,-0.31 0.99,-2.4 -0,-1.2 0.09,-2.28 -0.29,-3.25 -1.26,0.04 -1.28,-1.18 -2.44,4.14 -1.97,-3.17 0.12,-4.16 -2.83,-4.13l-0.28 4.44c0.25,1.71 -0.34,0.62 0.69,1.32z"/>
   <path class="fil1" d="M129.64 63.76l1.2 3.5 -2.74 -0.01 1.54 -3.49zm-3.77 6.65c1.87,-0.2 1.06,-0.56 2.05,-2.28l3.1 -0.01c1.16,1.56 0.06,1.9 2.13,2.34 -0.48,-1.68 -2.42,-7.48 -3.69,-8.3 -1.22,0.91 -3.18,6.87 -3.6,8.25z"/>
   <path class="fil1" d="M87.62 63.6l1.28 3.63 -2.75 -0.1 1.47 -3.53zm-3.11 6.86c0.82,-0.59 0.12,0.28 0.82,-0.91 0.14,-0.24 0.43,-1 0.63,-1.38l3.19 -0.03c1.14,1.9 0.23,2.28 2.1,2.14 -0.7,-1.59 -2.29,-6.96 -3.5,-8.12 -1.4,0.6 -0.86,0.43 -2.22,3.96 -0.83,2.14 -1.61,3.28 -1.02,4.34z"/>
   <path class="fil1" d="M109.82 63.63l1.28 3.54 -2.75 0.06 1.47 -3.6zm-3.64 6.61c1.71,0.19 0.88,-0.22 2,-2.11l3.2 0.03c0.96,2.09 0.39,1.59 1.48,2.32 0.3,-0.57 0.32,0.19 0.26,-0.83l-2.07 -5.57c-0.59,-1.6 -0.3,-1.39 -1.44,-1.91 -0.46,0.41 -0.25,0.06 -0.62,0.69l-2.83 7.39z"/>
   <path class="fil1" d="M147.7 70.45l3.62 -0c0.97,-0.25 0.31,-0.06 0.85,-0.49 -1.09,-0.69 -1.12,-0.43 -3.39,-0.41l-0.04 -2.86c1.5,0.01 1.92,0.24 2.99,-0.37 -0.77,-0.68 0.81,-0.2 -1.2,-0.57 -0.54,-0.1 -0.93,0.01 -1.73,-0.15l-0.07 -2.27 3.27 -0.45c-0.96,-1.07 -2.7,-0.71 -4.33,-0.72l0.03 8.31z"/>
   <path class="fil1" d="M30.9 64.69c0.68,1.1 1.09,1.35 2.21,1.99 1.11,0.64 1.56,0.63 1.62,1.66 0.14,2.65 -2.73,0.44 -3.89,1.2 1.37,2.81 7.39,-0.16 4.31,-2.86 -0.83,-0.73 -2.81,-0.93 -3.13,-2.14 -0.55,-2.04 2.27,-1.56 3.59,-1.27 -0.11,-0.29 0.64,-1.89 -2.69,-1.16 -1.52,0.33 -1.94,0.91 -2.02,2.57z"/>
   <path class="fil1" d="M64.2 63.05c1.43,-0 2.19,0.24 3.23,-0.38 -0.99,-0.88 -2.88,-0.61 -4.24,-0.34l-0.01 8.08 4.49 0.08 -0.06 -0.96 -3.41 0.01 -0 -2.84 2.98 -0.38c-0.83,-0.67 0.79,-0.19 -1.29,-0.58 -0.15,-0.03 -1.28,0.01 -1.62,0.02l-0.07 -2.7z"/>
   <path class="fil1" d="M46.46 63.46c0.57,-0.6 2.15,-0.33 3.07,-0.49l0.48 -0.3c-0.81,-0.68 -0.97,-0.8 -2.38,-0.61 -2.47,0.32 -3.34,2.77 -0.81,4.27 1.37,0.81 3.56,1.14 2.01,2.79 -1.3,1.39 -2.4,-0.22 -3.55,0.43 0.9,1.76 3.15,0.91 4.56,0.54 1.95,-5.18 -3.34,-2.73 -3.39,-6.64z"/>
   <path class="fil1" d="M94.68 63.34c-0.12,5.09 5.03,2.31 3.62,5.81 -0.84,0.98 -2.55,0.26 -3.05,0.25 -0.73,-0.03 -0.26,-0.03 -0.67,0.16 0.61,1.05 0.92,1.14 2.49,1.02 1.59,-0.13 1.82,-0.59 2.44,-1.42 0.35,-4.15 -3.64,-2.01 -3.75,-5.82l2.53 -0.33c0.95,-0.14 0.58,-0.1 1.03,-0.33 -0.44,-0.31 -0.17,-0.4 -1.03,-0.58 -1.48,-0.32 -2.58,0.29 -3.6,1.25z"/>
   <path class="fil1" d="M122.58 69.56c-1.64,-0.53 -5.19,1.42 -5.1,-3.24 0.05,-2.86 2.2,-3.82 4.97,-3.03 0,-0 1.04,-2.16 -3.07,-1.08 -1.36,0.36 -2.02,0.97 -2.5,2.04 -2.43,5.4 4.2,8.14 5.7,5.31z"/>
   <path class="fil1" d="M199.15 69.19c-2.03,1.27 -2.35,-0.36 -3.55,0.36 0.86,1.75 3.16,0.9 4.55,0.56 2.19,-5.42 -5.75,-3.94 -3.13,-6.69 1.1,-1.16 1.97,0.3 3.3,-0.76 -2.33,-1.93 -7.94,0.85 -2.41,4.06 2.84,1.64 1.4,2.18 1.23,2.47z"/>
   <path class="fil1" d="M180.64 69.96c-1.32,-0.88 -2.77,-0.12 -3.48,-0.47 -2.39,-2.46 -2.19,-3.87 0.08,-6.31 0.58,-0.31 2.23,0.2 3.49,-0.51 -0.43,-0.3 -0.49,-0.64 -1.87,-0.66 -0.74,-0.01 -1.56,0.18 -2.14,0.49 -4.58,2.5 -1.45,10.76 3.93,7.46z"/>
   <path class="fil1" d="M53.61 62.17c1.05,0.92 -1.06,0.48 2.41,1.02l-0 7.28 1.02 -0.01 0.01 -7.35c2.32,-0.16 1.77,0.47 2.4,-0.94l-5.83 0z"/>
   <path class="fil1" d="M220.27 16.9c0.87,0.67 0.94,0.28 1.85,0.81l0.01 4.58 1 0 -0 -4.58 1.85 -0.81c-1.01,-0.7 -3.69,-0.71 -4.71,0z"/>
   <path class="fil1" d="M40.37 62.18c-0.59,1.24 -0.59,7.03 0,8.28 1.01,-0.64 0.68,0.71 0.68,-4.14 -0,-5.01 0.32,-3.52 -0.68,-4.14z"/>
   <path class="fil1" d="M169.97 62.16c-0.55,0.67 -0.26,-0.14 -0.55,0.92l-0.04 3.23c0,4.93 -0.02,3.41 0.59,4.14 0.66,-1.14 0.57,-6.37 0.29,-7.71l-0.29 -0.58z"/>
   <path class="fil2" d="M148.3 61.26c1.48,-0.04 0.47,0.19 1.38,-0.89 0.96,0.64 0.62,0.62 1.67,1.07l-1.05 -2.01c-1.37,0.42 -1.47,0.54 -2.01,1.83z"/>
  </g>
 </g>
</svg>
