<?xml version="1.0" encoding="UTF-8"?>
<!DOCTYPE svg PUBLIC "-//W3C//DTD SVG 1.1//EN" "http://www.w3.org/Graphics/SVG/1.1/DTD/svg11.dtd">
<!-- Creator: CorelDRAW 2021 (64 Bit) -->
<svg xmlns="http://www.w3.org/2000/svg" xml:space="preserve" width="20.3547mm" height="6.2191mm" version="1.1" style="shape-rendering:geometricPrecision; text-rendering:geometricPrecision; image-rendering:optimizeQuality; fill-rule:evenodd; clip-rule:evenodd"
viewBox="0 0 359.03 109.7"
 xmlns:xlink="http://www.w3.org/1999/xlink"
 xmlns:xodm="http://www.corel.com/coreldraw/odm/2003">
 <defs>
  <style type="text/css">
   <![CDATA[
    .fil0 {fill:white}
   ]]>
  </style>
 </defs>
 <g id="Camada_x0020_1">
  <metadata id="CorelCorpID_0Corel-Layer"/>
  <g id="_2702141771472">
   <path class="fil0" d="M3.95 70.47c3.4,1.19 9.13,0.36 12.95,0.4l-0.78 -28.78 13.45 15.91c3.32,3.98 9.39,11.02 16.81,12.77 20.12,4.74 20.95,-24.83 13,-37.01l-9.51 -1.62c2.22,5.02 8.81,16.43 3.74,22.76 -4.89,6.11 -14.46,-1.54 -18.58,-6.74l-19.86 -24.12c-2.38,-1.72 -9.32,-2.03 -12.8,-2.3l1.59 48.72z"/>
   <path class="fil0" d="M192.37 65.52c-8.61,3.77 -15.28,0.85 -15.38,-8.52 -0.1,-9.5 6.56,-11.51 15.53,-9.32l-0.15 17.84zm0.15 4.71c-0.2,10.17 -10.12,7.48 -17.56,6.13l0.11 3.88c4.55,2.05 20.12,3.71 22.2,-5.98 0.82,-3.83 0.55,-25.49 0.2,-30.26 -11.7,-2.73 -24.25,-2.32 -25.36,10.61 -1.32,15.35 7.28,17.77 20.41,15.6z"/>
   <path class="fil0" d="M312.82 54.25c-0.1,-9.66 15.36,-10.76 15.18,0.03l-15.18 -0.03zm18.77 16.13l0.01 -4.14c-8.02,1.49 -19.86,2.37 -18.73,-7.72l19.98 -0.04c0.41,-8.22 -0.76,-13.72 -8.23,-15.35 -19.06,-4.18 -20.69,17.75 -12.64,25.15 4.54,4.17 13.2,3.11 19.61,2.09z"/>
   <path class="fil0" d="M260.03 54.26c-0.07,-9.67 15.33,-10.77 15.18,0.02l-15.18 -0.02zm18.78 16.14l0.01 -4.14c-8.07,1.59 -19.87,2.29 -18.74,-7.72l19.98 -0.04c0.35,-8.25 -0.75,-13.71 -8.22,-15.35 -19.01,-4.18 -20.75,17.68 -12.65,25.16 4.51,4.16 13.23,3.09 19.61,2.08z"/>
   <path class="fil0" d="M205.23 54.32c-0.05,-4.97 2.43,-7.38 7.51,-7.52 5.03,-0.14 7.89,2.54 7.55,7.51l-15.06 0.02zm18.74 12.04c-4.21,0.54 -8.48,1.56 -12.89,0.44 -3.7,-0.94 -6.43,-3.94 -5.76,-8.3l19.91 -0.02c0.5,-8.46 -1.09,-14.35 -9.06,-15.51 -20.33,-2.96 -19.16,21.23 -10.24,26.47 3.77,2.21 13.02,2.28 16.17,1.34 2.7,-0.8 1.84,-1.11 1.86,-4.42z"/>
   <path class="fil0" d="M151.37 60.77c-2.72,11.44 -20.55,7.93 -16.37,-7.99 2.59,-9.85 20.17,-8.02 16.37,7.99zm-11.25 -17.73c-9.39,1.7 -11.73,9 -10.37,17.72 2.42,15.41 30.07,15.71 26.79,-7.23 -1.14,-7.98 -7.58,-12.09 -16.43,-10.49z"/>
   <path class="fil0" d="M88.99 46.02c-2.57,-2.96 1.55,-3.03 -3.77,-3.26 -1.85,2.66 -1.01,26.08 -0.76,28.61l4.82 -0.13 0.08 -20.52c3.48,-3.31 12.21,-6.54 14.23,-0.16 1.08,3.39 0.07,15.91 0.52,20.77l4.81 -0.02c0.42,-5.41 0.96,-20.74 -1.48,-24.6 -3.72,-5.89 -14.22,-4.3 -18.45,-0.68z"/>
   <path class="fil0" d="M227.68 71.32l4.95 -0.03 0.12 -20.58c5.75,-5 12.56,-5.02 14.19,-0.31 1.11,3.21 0.24,16.24 0.56,20.82l4.8 0.13c0.5,-5.64 1.18,-20.62 -1.65,-24.62 -4.53,-6.4 -13.02,-4.01 -18.45,-0.72 -1.94,-3.08 0.49,-3.29 -4.27,-3.24l-0.26 28.55z"/>
   <path class="fil0" d="M300.15 60.52c2.24,9.88 -10.17,6.61 -16.56,5.22l0.08 4.35c5.39,1.15 13.04,2.36 18.01,-0.14 5.21,-2.61 5.54,-10.8 0.48,-13.83 -4.27,-2.56 -16.11,0.95 -14.71,-5.89 1.16,-5.61 12.78,-2.83 17.22,-1.86l-0.08 -3.94c-3.8,-2.08 -19.72,-3.94 -21.77,4.14 -3.43,13.48 11.39,9.33 17.32,11.95z"/>
   <path class="fil0" d="M335.27 65.77l0.08 4.22c24.08,6.46 25.66,-9.85 18.36,-13.92 -4.68,-2.61 -16.93,1.1 -14.49,-6.31 1.77,-5.39 13.43,-1.69 17.09,-1.68l-0.09 -3.84c-4.71,-1.67 -13.12,-2.17 -17.6,-0.18 -5.82,2.58 -5.85,10.68 -1.13,13.83 4.78,3.19 15.94,-1.15 14.74,5.9 -1.01,5.92 -12.46,2.73 -16.95,1.98z"/>
   <path class="fil0" d="M112.88 71.33l4.81 -0.03 0.11 -24.45 8.79 -0.03 0.04 -4.03 -8.87 -0.03c0.31,-8.77 4.77,-8.56 12.96,-6.74l-0.06 -3.53c-2.05,-1.51 -17.46,-5.34 -17.91,9.39 -0.26,8.31 -0.58,21.41 0.14,29.43z"/>
   <path class="fil0" d="M4.96 0.99c-11.07,5.7 -1.53,21.21 8.31,16.74 10.22,-4.64 1.93,-22.02 -8.31,-16.74z"/>
   <polygon class="fil0" points="74.21,71.1 79.1,71.41 79.26,32.37 74.2,32.55 "/>
   <path class="fil0" d="M159.2 71.33l4.95 -0.04 0.12 -20.57c1.11,-2.67 7.16,-3.61 8.34,-4.4l-0.12 -3.55c-4.63,0.28 -5.53,1.2 -8.76,3.12 -1.83,-3.34 0.12,-3.16 -4.28,-3.12l-0.26 28.55z"/>
   <path class="fil0" d="M112.23 109.22c1.01,-2.38 0.35,-6.52 0.57,-9.5 1.9,2.54 2.88,7.34 5.08,9.46l4.71 -9.67c0.23,1.83 0.2,3.5 0.17,5.24 -0.05,3.33 -0.21,3.09 0.77,4.57l0.57 -0.94c0.4,-1.38 0.9,-10.02 -0.57,-12 -2.13,0.9 -0.47,-0.98 -2.06,1.91 -1,1.82 -1.81,5.05 -3.59,7.83l-3.68 -7.73c-1.24,-2.64 -0.09,-1.66 -2.6,-1.86 -0.64,1.72 -0.38,4.14 -0.38,6.33 -0,1.14 -0.12,2.78 -0.07,3.83 0.15,3.22 -0.29,1.68 1.08,2.53z"/>
   <path class="fil0" d="M242.88 109.24c0.83,-0.94 0.66,-0.13 0.96,-1.96 0.02,-0.14 0.01,-2.24 0,-2.53 -0.03,-1.85 -0.08,-3.59 0.03,-5.44 1.44,2.85 3.49,6.73 4.43,9.99 2.21,-1.32 2.08,-2.54 3.09,-4.88 0.75,-1.75 1.95,-3.72 2.45,-5.11l0.06 10.01c1.8,-0.69 1.94,2.06 1.65,-9.65l-0.73 -3.28c-2.49,0.71 -0.5,-1.56 -3.25,4.49 -0.93,2.04 -1.83,3.74 -2.55,5.54 -0.86,-1.18 -1.89,-3.63 -2.57,-5.24 -1.08,-2.53 -1.06,-4.18 -3.56,-4.74 -0.95,1.86 -0.55,4.31 -0.55,6.41l0.05 4.97c0.36,2.1 0.04,0.53 0.5,1.41z"/>
   <path class="fil0" d="M213.93 97.81c10.65,-0.06 6.53,8.4 6.48,8.48 -2.05,1.26 -3.01,1.55 -6.49,1.54l0.01 -10.02zm-1.56 11.14c5.41,1.39 10.19,-0.84 10.36,-6.1 0.2,-6.01 -4.52,-7.48 -10.36,-6.12l-0.01 12.23z"/>
   <path class="fil0" d="M289.47 98.34c7.1,-3.76 8.37,7.61 4.05,9.34 -5.15,2.06 -7.3,-3.04 -6.21,-6.89 0.78,-2.75 0.78,-1.72 2.16,-2.45zm7.51 7.65c3.71,-8.13 -6.58,-13.55 -10.62,-6.76 -4.78,8.01 6.95,14.8 10.62,6.76z"/>
   <path class="fil0" d="M350.93 34.57c0.71,-1.76 0.45,-3.64 0.55,-5.93 1.06,1.61 0.66,1.41 1.26,3.23 0.77,2.35 0.12,1.71 1.95,2.77 1.7,-2.16 1.26,-3.65 2.55,-5.9l0.14 5.64c2.25,-0.2 1.55,-0.48 1.54,-3.72 -0.01,-1.87 0.14,-3.54 -0.46,-5.04 -1.96,0.07 -1.98,-1.83 -3.78,6.42 -3.06,-4.91 0.18,-6.45 -4.38,-6.41l-0.44 6.89c0.39,2.65 -0.52,0.95 1.07,2.05z"/>
   <path class="fil0" d="M201.07 98.88l1.86 5.43 -4.25 -0.01 2.39 -5.42zm-5.85 10.31c2.91,-0.31 1.65,-0.87 3.18,-3.54l4.82 -0.01c1.8,2.41 0.09,2.95 3.31,3.62 -0.75,-2.6 -3.76,-11.6 -5.73,-12.87 -1.9,1.41 -4.93,10.66 -5.58,12.8z"/>
   <path class="fil0" d="M135.9 98.64l1.99 5.63 -4.27 -0.16 2.28 -5.47zm-4.83 10.64c1.26,-0.91 0.19,0.44 1.27,-1.41 0.22,-0.37 0.66,-1.55 0.98,-2.14l4.94 -0.05c1.77,2.95 0.36,3.53 3.25,3.32 -1.09,-2.47 -3.55,-10.79 -5.42,-12.6 -2.17,0.92 -1.33,0.66 -3.45,6.15 -1.28,3.32 -2.49,5.08 -1.58,6.73z"/>
   <path class="fil0" d="M170.32 98.68l1.99 5.49 -4.27 0.09 2.28 -5.58zm-5.65 10.26c2.65,0.29 1.36,-0.35 3.11,-3.26l4.97 0.04c1.48,3.24 0.61,2.46 2.3,3.6 0.47,-0.88 0.49,0.3 0.41,-1.29l-3.21 -8.64c-0.91,-2.47 -0.47,-2.16 -2.23,-2.97 -0.71,0.63 -0.38,0.09 -0.96,1.06l-4.39 11.46z"/>
   <path class="fil0" d="M229.08 109.27l5.61 -0.01c1.5,-0.38 0.48,-0.09 1.32,-0.76 -1.7,-1.06 -1.74,-0.67 -5.26,-0.64l-0.07 -4.44c2.33,0.01 2.98,0.38 4.64,-0.58 -1.19,-1.06 1.26,-0.31 -1.87,-0.89 -0.83,-0.15 -1.44,0.01 -2.68,-0.24l-0.11 -3.53 5.07 -0.7c-1.48,-1.66 -4.19,-1.1 -6.71,-1.12l0.05 12.89z"/>
   <path class="fil0" d="M47.92 100.34c1.06,1.71 1.7,2.1 3.43,3.09 1.72,0.99 2.43,0.98 2.51,2.58 0.21,4.12 -4.23,0.68 -6.04,1.86 2.13,4.35 11.46,-0.25 6.68,-4.44 -1.29,-1.13 -4.36,-1.44 -4.86,-3.31 -0.85,-3.17 3.52,-2.42 5.57,-1.96 -0.17,-0.45 1,-2.94 -4.17,-1.81 -2.36,0.52 -3.02,1.41 -3.13,3.99z"/>
   <path class="fil0" d="M99.57 97.79c2.21,-0 3.4,0.38 5,-0.59 -1.53,-1.37 -4.46,-0.94 -6.57,-0.53l-0.01 12.53 6.96 0.12 -0.09 -1.48 -5.28 0.01 -0 -4.41 4.62 -0.58c-1.29,-1.04 1.22,-0.3 -2,-0.89 -0.23,-0.04 -1.99,0.02 -2.52,0.03l-0.11 -4.19z"/>
   <path class="fil0" d="M72.06 98.42c0.88,-0.93 3.33,-0.51 4.77,-0.75l0.75 -0.46c-1.26,-1.06 -1.5,-1.24 -3.69,-0.95 -3.83,0.5 -5.18,4.29 -1.25,6.63 2.12,1.26 5.51,1.76 3.11,4.33 -2.01,2.15 -3.73,-0.34 -5.51,0.67 1.4,2.73 4.89,1.41 7.07,0.83 3.02,-8.03 -5.18,-4.24 -5.26,-10.29z"/>
   <path class="fil0" d="M146.84 98.24c-0.19,7.89 7.81,3.59 5.62,9.01 -1.31,1.52 -3.96,0.41 -4.73,0.38 -1.13,-0.04 -0.41,-0.05 -1.04,0.25 0.95,1.63 1.42,1.77 3.87,1.58 2.46,-0.19 2.82,-0.91 3.78,-2.21 0.55,-6.43 -5.65,-3.11 -5.82,-9.03l3.92 -0.52c1.47,-0.22 0.91,-0.16 1.59,-0.51 -0.69,-0.49 -0.26,-0.62 -1.6,-0.9 -2.3,-0.49 -4,0.46 -5.59,1.95z"/>
   <path class="fil0" d="M190.11 107.88c-2.55,-0.82 -8.05,2.2 -7.91,-5.02 0.08,-4.44 3.41,-5.93 7.71,-4.7 0,-0.01 1.61,-3.35 -4.76,-1.68 -2.1,0.55 -3.13,1.5 -3.88,3.16 -3.78,8.37 6.51,12.62 8.85,8.24z"/>
   <path class="fil0" d="M308.86 107.32c-3.15,1.96 -3.64,-0.55 -5.51,0.56 1.34,2.72 4.89,1.4 7.05,0.87 3.4,-8.41 -8.92,-6.12 -4.85,-10.37 1.71,-1.79 3.06,0.46 5.12,-1.18 -3.62,-2.99 -12.31,1.32 -3.73,6.29 4.4,2.55 2.18,3.39 1.91,3.83z"/>
   <path class="fil0" d="M280.16 108.5c-2.05,-1.36 -4.3,-0.18 -5.4,-0.73 -3.7,-3.82 -3.4,-6.01 0.12,-9.79 0.89,-0.49 3.46,0.3 5.41,-0.79 -0.66,-0.47 -0.76,-0.99 -2.89,-1.03 -1.14,-0.02 -2.42,0.28 -3.32,0.77 -7.11,3.87 -2.25,16.69 6.09,11.57z"/>
   <path class="fil0" d="M83.15 96.42c1.63,1.42 -1.65,0.74 3.73,1.59l-0 11.29 1.58 -0.01 0.02 -11.41c3.61,-0.26 2.75,0.73 3.71,-1.46l-9.04 0z"/>
   <path class="fil0" d="M341.63 26.22c1.35,1.03 1.46,0.44 2.86,1.26l0.01 7.1 1.55 0 -0 -7.1 2.88 -1.26c-1.57,-1.09 -5.72,-1.1 -7.3,0z"/>
   <path class="fil0" d="M62.61 96.43c-0.91,1.92 -0.91,10.9 0,12.84 1.56,-0.99 1.05,1.11 1.05,-6.42 -0,-7.78 0.49,-5.46 -1.05,-6.42z"/>
   <path class="fil0" d="M263.61 96.41c-0.86,1.04 -0.41,-0.22 -0.86,1.43l-0.06 5.01c0,7.65 -0.04,5.28 0.92,6.42 1.02,-1.77 0.89,-9.87 0.45,-11.95l-0.45 -0.9z"/>
   <path class="fil0" d="M230 95.01c2.29,-0.05 0.72,0.3 2.15,-1.37 1.49,0.99 0.96,0.96 2.59,1.65l-1.63 -3.12c-2.12,0.66 -2.28,0.84 -3.11,2.84z"/>
  </g>
 </g>
</svg>
